<svg width="11" height="9" viewBox="0 0 11 9" fill="none" xmlns="http://www.w3.org/2000/svg">
<path d="M10.6874 0.225069C10.5193 0.749981 10.1625 1.19191 9.69718 1.47045C10.1528 1.4162 10.5864 1.29484 10.9906 1.11579C10.6887 1.56715 10.3066 1.96384 9.86528 2.28012C9.87022 2.37682 9.87215 2.47439 9.87215 2.57174C9.87215 5.54838 7.60653 8.98047 3.46341 8.98047C2.19123 8.98047 1.0076 8.60715 0.0107422 7.96838C0.186999 7.98897 0.366044 7.9999 0.547877 7.9999C1.60328 7.9999 2.57484 7.63967 3.34548 7.03585C2.3602 7.01741 1.52844 6.3662 1.24176 5.4714C1.37963 5.49756 1.52029 5.51193 1.66567 5.51193C1.87152 5.51193 2.07051 5.48448 2.2592 5.43302C1.22932 5.22589 0.452672 4.31522 0.452672 3.22423V3.19614C0.756512 3.36489 1.10367 3.46653 1.47291 3.47875C0.869085 3.07542 0.471113 2.38583 0.471113 1.60425C0.471113 1.19127 0.581541 0.804231 0.77581 0.472087C1.88675 1.83476 3.5464 2.7317 5.41832 2.82561C5.37994 2.66094 5.36 2.48875 5.36 2.31228C5.36 1.06905 6.36866 0.0603905 7.61275 0.0603905C8.26031 0.0603905 8.84569 0.333568 9.25675 0.771852C9.76987 0.670429 10.2523 0.483022 10.6874 0.225069Z" fill="white"/>
</svg>
